<svg fill="none" height="109" viewBox="0 0 125 109" width="125" xmlns="http://www.w3.org/2000/svg"><g fill="#000"><path d="m122.146 43.7024c-.095-.001-.191-.007-.285-.0179-.586-.0745-1.117-.3793-1.478-.8469-.361-.4667-.521-1.0585-.445-1.6443.919-6.3108-.687-12.7288-4.469-17.863-3.783-5.1342-9.438-8.5697-15.7374-9.5615-1.2173-.1658-2.0702-1.2878-1.9044-2.5061.1659-1.2173 1.2868-2.07013 2.5048-1.90432 7.462 1.15372 14.169 5.20182 18.666 11.26732 4.496 6.0665 6.42 13.6601 5.354 21.1346-.142 1.11-1.087 1.9421-2.206 1.9421z"/><path d="m112.612 42.4091c-.142 0-.284-.0139-.423-.0417-1.206-.2333-1.994-1.399-1.762-2.6043.829-3.8366-.045-7.8438-2.398-10.9854-2.365-3.0263-5.926-4.879-9.7626-5.0778-.6007-.0248-1.1656-.2919-1.5658-.7407-.4011-.4488-.6027-1.0406-.559-1.6402.0427-.5998.3267-1.1568.7874-1.544.4597-.3862 1.0574-.5709 1.6551-.5093 5.1079.28 9.8419 2.7632 12.9749 6.8051 3.134 4.1472 4.313 9.4505 3.234 14.5341-.2 1.0465-1.116 1.8032-2.181 1.8042z"/><path d="m23.8532 108.991c-.1221.001-.2443-.01-.3644-.031-7.4259-1.372-14.01271-5.616-18.33174-11.8112-4.319035-6.1946-6.021788-13.8429-4.740974-21.2856.21248-1.1934 1.341384-1.9967 2.537844-1.807 1.19741.1896 2.02251 1.3026 1.85472 2.5031-1.10411 6.2851.31376 12.7517 3.94564 17.9982 3.63301 5.2465 9.18811 8.8485 15.45921 10.0255 1.1389.192 1.9401 1.223 1.8468 2.374-.0943 1.15-1.0524 2.038-2.2072 2.043z"/><path d="m25.7371 99.1213c-.0755 0-.1509 0-.2224-.0109-5.0966-.4319-9.7552-3.0532-12.7706-7.1837-3.01149-4.2376-4.03812-9.5714-2.81272-14.6232.11122-.5927.45872-1.114.96112-1.4456.5034-.3317 1.12-.4449 1.7078-.3138.5888.1311 1.0981.4954 1.4129 1.0098.3147.5133.4071 1.1329.2571 1.7167-.9383 3.8117-.1797 7.8419 2.0791 11.0517 2.2767 3.0949 5.7837 5.0498 9.6121 5.3597 1.2292.0615 2.1745 1.1071 2.1129 2.3353-.0606 1.2282-1.1061 2.1744-2.3353 2.1128z"/><path d="m60.1394 105.171c-4.6538-.047-9.225-1.24-13.3068-3.474-6.3406-3.3075-9.786-6.9931-16.478-21.1159-3.0888-6.5093-3.643-7.7556-4.7857-10.3291-.6673-1.4795-1.5142-3.4007-3.1674-7.0347l-.001.001c-1.7713-3.9231-3.7868-7.7307-6.0357-11.4006-1.5122-2.5378-3.0741-5.158-5.042-9.1764-1.1716-2.3928-4.28138-8.7494 1.0456-11.739 1.7107-.9611 6.1409-2.4823 10.2307 4.1362 2.0682 3.3362 3.2268 5.4779 4.2476 7.3662 1.2471 2.3889 2.6341 4.7023 4.1543 6.9274-.2978-.7764-.5987-1.5568-.8896-2.3154-1.4238-3.7006-3.0382-7.8954-4.5554-12.2485l-.6672-1.95c-.7963-2.3174-1.4298-4.1482-2.8664-7.8359-.8539-2.1972-2.0791-6.3387-.6802-9.4415v.001c.6404-1.4337 1.8409-2.5418 3.3201-3.0652 2.809-1.0316 6.855-.834 10.1662 6.005 3.9607 8.1697 5.1403 10.9913 7.2709 16.4244.692 1.7594 1.6809 3.9695 2.6976 6.0765-.5362-2.3244-1.2809-5.2425-2.2976-8.8567v.001c-2.238-6.6473-3.8028-13.5023-4.6705-20.4615-.8897-6.53425 1.0008-10.85125 5.0528-11.538554 6.7566-1.189486 9.0562 6.294014 10.1593 9.870334l.14.44482c1.8885 6.0607 2.7602 9.5239 3.6857 13.1886.4577 1.822.9382 3.7324 1.5767 6.0874.2353.8787.5252 2.0265.8469 3.3003.1181.4736.2562 1.0207.4071 1.6125-.0427-.5253-.0914-1.0763-.145-1.6612h.001c-.7496-7.1666-.8847-14.384-.4021-21.5735.5223-8.34425 4.6457-9.61515 6.3962-9.773 4.6904-.39616 7.13 4.29718 7.829 8.8676l.0864.5669c1.0673 6.2333 1.7395 12.5273 2.0156 18.8452.2065 6.1161.8012 12.2137 1.7792 18.2553.5799 3.7611 1.4626 7.4696 2.6402 11.0886.5342-1.6522 1.0763-3.9566 1.4208-5.4362.42-1.7951.7824-3.3361 1.1637-4.4372 3.1137-8.8963 6.8946-12.3148 8.3739-13.3712 1.6661-1.1964 6.7279-3.648 10.0457-.7069l-.001.001c.802.6643 1.375 1.5608 1.643 2.5667.267 1.0048.213 2.0682-.152 3.0423-.51 1.3057-.999 2.4594-1.473 3.5784-1.2687 2.8226-2.3103 5.7429-3.1135 8.7323-1.4129 5.2692-2.521 10.6161-3.3184 16.0134-.554 4.196-1.4972 8.3323-2.8178 12.3544-2.9777 8.934-6.6275 15.0305-16.4869 19.7344v-.001c-4.6606 2.4-9.8027 3.717-15.0434 3.853zm-44.6722-70.6621c-.3267.0059-.6454.1002-.9234.273-1.1785.6672-.9541 2.371.7745 5.9028 1.8905 3.8544 3.4027 6.3983 4.8711 8.8587h-.001c2.3293 3.8117 4.4205 7.7645 6.2612 11.8344 1.6612 3.6498 2.522 5.5821 3.1824 7.0685 1.1319 2.5507 1.6839 3.7809 4.742 10.2308 6.5649 13.8449 9.4631 16.4452 14.5142 19.0785 7.8577 4.0964 15.1486 3.9634 24.3914-.4448 8.4713-4.043 11.5204-9.1386 14.1855-17.1254 1.2461-3.7899 2.1327-7.688 2.6491-11.6438.8241-5.5462 1.9639-11.0411 3.4116-16.4582.8549-3.193 1.962-6.3128 3.3122-9.3302.4577-1.0832.9324-2.2022 1.4238-3.4672.1073-.2711-.2025-.5759-.2998-.6673-.7943-.694-3.2784.1202-4.5059.9989-.8896.6364-4.0033 3.3183-6.7586 11.2246-.3048.8628-.6673 2.38-1.0346 3.9856-1.4814 6.3118-2.4465 9.9099-5.1731 10.3667-3.3669.558-5.3019-3.5298-7.5977-16.2467h-.002c-1.0118-6.2175-1.6273-12.4935-1.8438-18.7895-.271-6.1797-.9313-12.3356-1.9748-18.4332l-.0864-.5649c-.2115-1.37918-1.2252-5.26438-3.0293-5.11543-1.2074.10922-2.1576 2.36607-2.3602 5.61793-.4756 6.9671-.3435 13.9631.3942 20.9063 1.0654 11.6656.5779 14.9966-2.2727 15.4971-2.8069.5163-3.7253-2.0126-6.7348-13.9601-.3137-1.245-.5957-2.366-.83-3.225-.6424-2.3839-1.1299-4.317-1.5946-6.1629-.9472-3.759-1.7663-7.0057-3.621-12.9482l-.142-.4646c-1.3831-4.50665-2.7444-7.21927-5.164-6.79936-1.532.26211-1.7921 3.58343-1.388 6.55916.835 6.72 2.3432 13.3393 4.5018 19.7584 4.9148 17.479 3.8185 19.0468 3.0939 20.0854-.4488.6423-1.1607 1.0504-1.9421 1.112h-.1271c-3.0761 0-7.0276-8.4068-9.8198-15.5129-2.088-5.318-3.2408-8.0822-7.1328-16.1066-2.2509-4.633-3.9189-4.0301-4.6278-3.7632h.001c-.3615.1102-.6553.3734-.8033.7209-.42 2.0314-.1499 4.1454.7695 6.005 1.4705 3.7679 2.1148 5.6356 2.9309 8.0066l.6672 1.9352c1.4943 4.2834 3.096 8.4515 4.5107 12.1122 4.1544 10.7958 5.1421 13.3623 2.4912 14.6253-1.1716.56-2.7673 1.2967-8.5448-6.9254-1.953-2.7434-3.7163-5.6159-5.2773-8.5984-.9899-1.8349-2.1128-3.9121-4.0768-7.0744-1.4863-2.4028-2.6312-2.936-3.3897-2.936z"/></g></svg>