<svg height="73" viewBox="0 0 76 73" width="76" xmlns="http://www.w3.org/2000/svg"><g fill="none" transform="translate(0 -1)"><path d="m67.1200285 46.68c.0056857 2.1496225-.8475317 4.2124647-2.3700285 5.73-.3449861.3372891-.8075353.5273287-1.29.5300105-.7380293.002483-1.4044972-.4409729-1.6872664-1.1226878-.2827692-.6817148-.1258495-1.4667045.3972664-1.9873227 1.7313359-1.7431519 1.7313359-4.5568481 0-6.3-.7124473-.7124473-.7124473-1.8675526.0000001-2.5799999.7124473-.7124474 1.8675526-.7124474 2.5799999-.0000001 1.5224968 1.5175353 2.3757142 3.5803775 2.3700285 5.73z" fill="#fff"/><g fill="#000"><path d="m31.86 30.59-6.31-6.31.09.08z"/><path d="m68.7 30.72c-.34-.4-.7-.78-1.07-1.14l-11.37-11.37c-2.0798641-2.0802857-5.2854005-2.532976-7.86-1.11l-8.6-8.61c-2.7920135-2.7723918-7.2979865-2.7723918-10.09 0-.877322.87008492-1.5087042 1.9568903-1.83 3.15-2.9222648-2.46177381-7.2656884-2.18229482-9.8483538.6336955-2.5826654 2.8159903-2.4863647 7.1673307.2183538 9.8663045l.41.41c-2.4345989.6900041-4.3221116 2.6170983-4.9614483 5.0654908-.6393368 2.4483925.0650205 5.0522891 1.8514483 6.8445092l1.24 1.24c-1.1788292.3222606-2.2516598.9500907-3.11 1.82-2.7712298 2.7885927-2.7712298 7.2914073 0 10.08l18 18c4.7994096 4.824268 11.3150761 7.5499165 18.12 7.5801409h.14c6.718351.0223199 13.1668606-2.6420559 17.91-7.4001409 9.5304089-9.6144483 9.9032975-24.9950055.85-35.06zm-3.47 32.45c-4.0824458 4.1119552-9.6560161 6.3954956-15.45 6.33-5.8441295-.0139615-11.44255-2.3526333-15.56-6.5l-18-18c-.6510692-.6518361-1.0116155-1.5387799-1.0002722-2.46-.010647-.9240332.3495911-1.8138212 1.0002722-2.47 1.3855452-1.3017401 3.5444548-1.3017401 4.93 0l12.59 12.57c.7197747.6448694 1.8180515.6147498 2.5014007-.0685993.6833491-.6833492.7134687-1.781626.0685993-2.5014007l-12.54-12.55-5.64-5.64c-1.3591971-1.3622861-1.3591971-3.5677139 0-4.93 1.3815639-1.3117537 3.5484361-1.3117537 4.93 0l15.45 15.45c.7124473.7096858 1.8653141.7074472 2.5749999-.0050001.7096859-.7124473.7074474-1.865314-.0049999-2.5749999l-20.26-20.26c-1.3483004-1.3667744-1.3483004-3.5632256 0-4.93 1.3869139-1.3080155 3.5530861-1.3080155 4.94 0l4 4 4.6 4.6 9 9c.7124473.7124473 1.8675527.7124473 2.58 0s.7124473-1.8675527 0-2.58l-9-9-4.65-4.65c-1.3591971-1.3622861-1.3591971-3.5677139 0-4.93 1.3815639-1.31175373 3.5484361-1.31175373 4.93 0l8.6 8.61c-1.419505 2.5752384-.9671274 5.7785608 1.11 7.86l4.72 4.72c-2.9682636 3.7948416-2.8765245 9.1490722.22 12.84.0348321.044854.075146.0851679.12.12.6587931.6763878 1.7282604.7287699 2.45.12.3723595-.3096143.6059738-.7548603.6491402-1.2371976.0431664-.4823372-.1076749-.9619898-.4191402-1.3328024-2.2002666-2.6229609-2.0174987-6.4959.42-8.9.0615632-.0684974.1284376-.132028.2-.19.4208749-.3192651.6832512-.804831.7196628-1.3318415.0364117-.5270105-.156694-1.044046-.5296628-1.4181585l-6-6c-.8257786-1.1931613-.6792289-2.8063141.348046-3.8311313 1.0272749-1.0248173 2.6407741-1.1675028 3.831954-.3388687l11.34 11.39c.31.31.6.62.9 1 7.7567652 8.606999 7.4630401 21.7676369-.67 30.02z"/><path d="m67.1200285 46.68c.0056857 2.1496225-.8475317 4.2124647-2.3700285 5.73-.3449861.3372891-.8075353.5273287-1.29.5300105-.7380293.002483-1.4044972-.4409729-1.6872664-1.1226878-.2827692-.6817148-.1258495-1.4667045.3972664-1.9873227 1.7313359-1.7431519 1.7313359-4.5568481 0-6.3-.7124473-.7124473-.7124473-1.8675526.0000001-2.5799999.7124473-.7124474 1.8675526-.7124474 2.5799999-.0000001 1.5224968 1.5175353 2.3757142 3.5803775 2.3700285 5.73z"/><path d="m59.69 17.1400275c-.482694 0-.9456181-.1917769-1.2869343-.5330932-.3413163-.3413162-.5330657-.8042403-.5330657-1.2869343-.0054992-2.4553857-1.9946143-4.4445008-4.45-4.45-1.0079197 0-1.825-.8170803-1.825-1.825 0-1.00791967.8170803-1.825 1.825-1.825 4.4712222.00550983 8.0944902 3.6287778 8.1 8.1 0 .4844316-.1931142.9488777-.5365963 1.2904828s-.8089794.5321789-1.2934037.5295447z"/><path d="m65.93 16.76c-1.0051582 0-1.82-.8148418-1.82-1.82-.0055191-5.69567298-4.6243243-10.31000267-10.32-10.31-.6520097.00000002-1.2544915-.34784301-1.5804964-.91249998-.3260049-.56465698-.3260049-1.26034306 0-1.82500004.3260049-.56465697.9284867-.91249998 1.5804964-.91249998 7.7319865 0 14 6.2680135 14 14-.0104929.4827323-.2123805.9415107-.561224 1.2753502s-.8160488.5153758-1.298776.5046498z"/><path d="m15.25 61.58c-4.4712222-.0055098-8.09449017-3.6287778-8.1-8.1 0-1.0079197.81708033-1.825 1.825-1.825s1.825.8170803 1.825 1.825c.0054992 2.4553857 1.9946143 4.4445008 4.45 4.45 1.0079197 0 1.825.8170803 1.825 1.825s-.8170803 1.825-1.825 1.825z"/><path d="m14.87 67.82c-7.7319865 0-14-6.2680135-14-14 0-1.0079197.81708033-1.825 1.825-1.825s1.825.8170803 1.825 1.825c-.00799841 2.7474349 1.07987622 5.3846477 3.02261429 7.3273857 1.94273806 1.9427381 4.57995081 3.0306127 7.32738571 3.0226143 1.0079197 0 1.825.8170803 1.825 1.825s-.8170803 1.825-1.825 1.825z"/></g></g></svg>