<svg width="116" height="71" viewBox="0 0 116 71" fill="none" xmlns="http://www.w3.org/2000/svg">
<path d="M50.5564 50.4879C50.5564 54.1582 49.1221 56.2416 42.0069 56.2416C41.0717 56.2416 40.2588 56.1853 39.449 56.0727V7.53249C39.449 3.849 40.695 0 47.8729 0C48.8114 0 49.6839 0.0827599 50.5564 0.281568V50.4879ZM35.328 43.1376C35.328 49.9612 30.8963 54.9531 21.9074 55.9303C15.354 56.6359 5.86599 55.811 1.3747 55.2976C1.18637 54.5589 1.06087 53.6413 1.06087 52.9027C1.06087 46.9403 4.24336 45.5624 7.30353 45.5624C10.4233 45.5624 15.354 46.1321 19.0387 46.1321C23.031 46.1321 24.2802 44.7675 24.2802 43.4556C24.2802 41.7399 22.6575 41.0277 19.5378 40.4347L10.9223 38.7752C3.80709 37.4005 0 32.4684 0 27.2214C0 20.8218 4.49448 15.4789 13.3578 14.5084C20.0368 13.7697 28.2128 14.5946 32.7073 15.141C32.8925 15.9096 32.9552 16.6548 32.9552 17.4234C32.9552 23.3923 29.8355 24.6808 26.7753 24.6808C24.5312 24.6808 20.9093 24.2502 16.7915 24.2502C12.6077 24.2502 10.8595 25.4129 10.8595 26.814C10.8595 28.3014 12.5449 28.8976 15.1061 29.3779L23.3449 30.8917C31.7092 32.4319 35.328 37.2316 35.328 43.1376ZM80.3919 69.2759C81.3304 69.7695 83.201 70.3326 85.6366 70.3955C89.7544 70.4751 92.0016 68.9116 93.687 65.1718L115.908 15.5352C115.036 15.0517 112.974 14.5018 111.288 14.4819C108.479 14.4191 104.609 14.9888 102.177 20.8385L94.999 37.851L80.891 14.8463C79.9557 14.5647 77.7712 14.1705 76.1486 14.1705C71.1551 14.1705 68.346 15.9957 65.4742 19.1325L51.8056 34.1776L62.7907 51.5512C64.8528 54.7279 67.5363 56.3477 71.8425 56.3477C74.7143 56.3477 77.0839 55.6918 78.2075 55.1485L64.9752 35.1084L74.3376 25.0949L89.7544 49.3849" fill="#2B332B"/>
</svg>
