<?xml version="1.0" encoding="UTF-8"?>
<svg width="463px" height="50px" viewBox="0 0 463 50" version="1.1" xmlns="http://www.w3.org/2000/svg" xmlns:xlink="http://www.w3.org/1999/xlink">
    <title>Group 5</title>
    <g id="Page-1" stroke="none" stroke-width="1" fill="none" fill-rule="evenodd">
        <g id="home-desktop-copy-19" transform="translate(-645.000000, -1303.000000)" fill="#626262" fill-rule="nonzero">
            <g id="Group-14" transform="translate(112.000000, 1283.000000)">
                <g id="Group-5" transform="translate(533.000000, 20.000000)">
                    <g id="Group-4" transform="translate(-0.000000, -0.000000)">
                        <path d="M34.4579209,34.424331 C34.4579209,36.9268596 33.4803347,38.3474472 28.6308104,38.3474472 C27.9933429,38.3474472 27.4392989,38.3090472 26.8873974,38.2322734 L26.8873974,5.13588992 C26.8873974,2.62436463 27.7366216,4.54747351e-13 32.6289158,4.54747351e-13 C33.268578,4.54747351e-13 33.8632495,0.056419673 34.4579209,0.191973774 L34.4579209,34.424331 Z M24.0786349,29.4126641 C24.0786349,34.0652491 21.0581157,37.4688662 14.9314878,38.1351193 C10.464852,38.6162209 3.99810278,38.0538078 0.93696133,37.7037488 C0.808599355,37.2000924 0.723059583,36.5744399 0.723059583,36.0708071 C0.723059583,32.0054746 2.89215724,31.0659598 4.97788631,31.0659598 C7.10421408,31.0659598 10.464852,31.4544189 12.9762918,31.4544189 C15.6973172,31.4544189 16.54871,30.5239533 16.54871,29.6295034 C16.54871,28.4596411 15.4427645,27.974028 13.3164367,27.569729 L7.44433277,26.4382404 C2.59480843,25.5009316 8.24229573e-13,22.1380489 8.24229573e-13,18.5604777 C8.24229573e-13,14.1970206 3.06331526,10.5540356 9.10435107,9.89231754 C13.6565266,9.38865851 19.2291105,9.95107164 22.2924258,10.3236618 C22.4186166,10.8476749 22.4614126,11.3558166 22.4614126,11.8798297 C22.4614126,15.9496475 20.3350587,16.8282049 18.249327,16.8282049 C16.7198419,16.8282049 14.2512242,16.5345917 11.4446329,16.5345917 C8.59310052,16.5345917 7.40156289,17.3273524 7.40156289,18.2827072 C7.40156289,19.2968449 8.55030448,19.7033236 10.2958913,20.0308252 L15.9112425,21.0630062 C21.6121623,22.1131571 24.0786349,25.3857316 24.0786349,29.4126641 M54.792977,47.2346526 C55.4326418,47.5711745 56.7075768,47.9551483 58.3675951,47.9980336 C61.1741603,48.0523024 62.7058166,46.9862329 63.8545608,44.4363338 L79,10.5924356 C78.4052004,10.2627569 76.9998369,9.88780606 75.8510953,9.87427163 C73.9365242,9.83138639 71.2989197,10.2198454 69.64107,14.2083779 L64.7487758,25.8080765 L55.1331218,10.1226913 C54.495657,9.93071754 53.0067679,9.66194376 51.9008224,9.66194376 C48.4973884,9.66194376 46.5828174,10.9064264 44.6254764,13.0451805 L35.3093399,23.3033971 L42.7964687,35.1493409 C44.2019368,37.3152924 46.030942,38.4197357 48.9658953,38.4197357 C50.9232362,38.4197357 52.5383134,37.9725226 53.3041167,37.6020859 L44.2853316,23.9380987 L50.6665122,17.1105131 L61.1741603,33.6723048" id="path5944"></path>
                        <path d="M178.494178,49.9924003 C201.334603,49.9924003 217.471128,40.9640315 224.377156,36.4835351 C225.556234,35.7424003 224.882476,34.5296344 223.602334,35.0349535 C205.983539,42.2778613 194.563327,44.9392089 178.494178,44.9392089 C162.425029,44.9392089 151.004816,42.2778613 133.386022,35.0349535 C132.10588,34.5296344 131.432121,35.7087124 132.611199,36.4835351 C139.550915,40.9640315 155.653752,49.9924003 178.494178,49.9924003" id="path2926"></path>
                        <path d="M210.860206,16.8646876 C210.860206,19.8966025 214.599568,20.772489 216.519781,21.2441202 C217.463043,21.4799358 219.383256,21.951567 219.416944,23.164333 C219.48432,24.4781628 217.968362,25.1856096 216.452405,25.1856096 C214.869071,25.1856096 213.858433,24.5455386 212.982546,23.4001486 C212.578291,22.8948294 212.10666,22.7600776 211.500277,22.9622053 C210.79283,23.164333 210.018007,23.5685883 209.276873,24.0739074 C208.838929,24.3770989 208.67049,24.8487301 208.906305,25.4214252 C210.119071,28.3185883 213.353114,29.2281628 216.149213,29.2281628 C220.562334,29.2281628 224.402759,27.30795 225.346022,23.4001486 C226.289284,19.559723 223.156305,18.1448294 220.326518,17.3363188 C218.473681,16.7973117 217.092476,16.3593684 217.193539,15.1129145 C217.294603,13.7990847 220.29283,12.9568862 222.347795,15.3487301 C222.853114,15.9551131 223.392121,16.022489 223.998504,15.7866734 C224.638575,15.5508578 225.682901,15.0792266 226.019781,14.843411 C226.727227,14.4054677 226.861979,14.0012124 226.457724,13.2600776 C225.413398,11.3735528 222.853114,10.1270989 219.955951,10.1270989 C214.464816,10.1944748 210.860206,13.05795 210.860206,16.8646876" id="path2930"></path>
                        <path d="M149.916695,8.90860601 C150.017759,11.9742089 150.320951,19.0823649 150.320951,19.0823649 L143.111731,19.0823649 C144.728752,16.05045 147.558539,11.6710174 149.68088,8.87491807 C149.84932,8.57172658 149.916695,8.90860601 149.916695,8.90860601 M150.253575,3.08059183 C149.074497,3.14796772 148.097546,3.24903155 147.187972,4.32704573 C144.257121,7.79690389 137.519532,18.2064784 132.196837,27.6727904 C131.82627,28.3465493 132.095773,28.9866202 132.904284,28.9866202 C133.813859,28.9866202 136.374142,28.9866202 136.812085,28.9866202 C137.452156,28.9866202 137.8901,28.8518684 138.328043,28.1107337 C138.799674,27.302223 139.945064,25.2809464 140.955702,23.5628613 L150.287263,23.5628613 C150.287263,23.5628613 150.388327,26.7632159 150.422015,27.942294 C150.455702,28.5823649 150.82627,28.9866202 151.668468,28.9866202 C152.510667,28.9866202 154.531944,28.9866202 155.104639,28.9866202 C155.677334,28.9866202 156.216341,28.7171167 156.182653,27.908606 C156.081589,24.5734996 155.23939,8.20115921 154.936199,4.36073367 C154.868823,3.41747126 154.397192,3.01321594 153.319178,3.01321594 C152.274851,2.979528 151.095773,3.01321594 150.253575,3.08059183" id="path2934"></path>
                        <path d="M198.051039,25.2772408 C201.31877,25.2772408 202.733663,22.5822053 203.575862,19.7187301 C204.384373,16.855255 204.721252,14.1602195 201.419834,14.1602195 C198.118415,14.1602195 196.73721,16.855255 195.928699,19.7187301 C195.052812,22.6158932 194.749621,25.2772408 198.051039,25.2772408 Z M197.680472,29.286106 C191.81877,29.286106 189.123734,25.4119925 190.302812,19.7524181 C191.515578,14.0928436 195.861323,10.2187301 201.723025,10.2187301 C207.618415,10.2187301 210.313451,14.0928436 209.100685,19.7524181 C207.921607,25.4119925 203.575862,29.286106 197.680472,29.286106" id="path2938"></path>
                        <path d="M186.827564,26.8629323 C188.242458,21.2707337 189.556288,15.9817266 190.432174,12.2086769 C190.634302,11.2991025 190.095295,10.6927195 189.387848,10.6927195 C188.882529,10.6927195 187.400259,10.6927195 186.928628,10.7264074 C186.120117,10.7600954 185.648486,11.1643507 185.446359,11.8381096 C185.412671,12.0065493 185.345295,12.174989 185.244231,12.5792443 C185.210543,12.747684 185.143167,12.747684 185.075791,12.6129323 C184.738912,11.9391734 183.222954,10.4232159 180.595295,10.4232159 C175.811607,10.4232159 172.510188,15.0384642 171.128983,19.316833 C170.253096,22.0118684 170.18572,25.1111592 171.297422,26.7955564 C172.308061,28.3115138 173.925082,29.2884642 176.41799,29.3221521 C178.506642,29.3558401 180.325791,28.6483932 181.235366,27.5030032 C181.336429,27.3682514 181.437493,27.4356273 181.403805,27.5703791 C180.191039,31.747684 177.630756,32.8930741 175.643167,32.8930741 C174.329337,32.8930741 173.386075,32.354067 172.914444,32.0508755 C172.173309,31.6129323 171.937493,31.5792443 171.263734,31.747684 C170.5226,31.9498117 169.646713,32.2866911 168.939266,32.7583223 C168.097068,33.3310174 168.265507,33.9037124 168.568699,34.4090315 C170.152032,36.9693152 173.824018,37.6093862 175.980046,37.6093862 C181.302741,37.6093862 185.042103,33.9374003 186.827564,26.8629323 Z M175.811607,19.889528 C176.855933,16.2175422 178.641394,14.3310174 181.066926,14.3983932 C184.166217,14.4994571 183.526146,17.531372 182.852387,19.8558401 C181.808061,23.3930741 180.191039,25.2795989 177.664444,25.0774713 C175.070472,24.8416557 175.238912,21.8434287 175.811607,19.889528" id="path2942"></path>
                        <path d="M173.980667,11.5315493 C174.317546,11.2283578 174.115419,10.7230386 173.576412,10.7230386 C170.544497,10.7230386 167.647334,10.7230386 165.491305,12.7106273 C165.457617,12.7443152 165.356554,12.7443152 165.390241,12.6432514 C165.423929,12.4748117 165.524993,12.1042443 165.626057,11.666301 C165.760809,11.1609819 165.457617,10.7230386 164.884922,10.7230386 C163.975348,10.7230386 163.032085,10.7230386 161.920383,10.7567266 C161.246624,10.7567266 160.876057,11.0262301 160.707617,11.7673649 C160.370738,13.2833223 158.04627,24.737223 157.372511,28.1733932 C157.271447,28.6450245 157.675702,29.0155918 158.079958,29.0155918 C158.450525,29.0155918 161.347688,29.0155918 161.684568,29.0155918 C162.324639,29.0155918 162.661518,28.7124003 162.762582,28.1733932 C163.335277,25.4446698 164.076412,21.772684 164.312227,20.4925422 C164.682795,18.6060174 165.457617,17.1237479 166.198752,16.5510528 C166.906199,16.0120457 167.883149,15.6414784 169.83705,15.5404145 C170.712937,15.5067266 171.049816,15.237223 171.521447,14.5634642 C172.262582,13.3843862 172.936341,12.5084996 173.980667,11.5315493" id="path2946"></path>
                        <path d="M288,34.7797374 C288.38427,34.5833849 288.556103,34.1175005 288.556103,33.7189991 L288.556103,23.9426726 C288.556103,23.5289557 288.38427,23.0768377 288,22.8688924 L292.662713,22.8688924 C294.742119,22.8688924 296.770772,23.7195118 296.770772,26.0786402 C296.770772,27.3299346 295.679592,28.316769 294.502857,28.5384807 C296.197993,28.5232652 297.835852,29.5579198 297.835852,31.4272537 C297.835852,34.0986623 295.032134,34.7804619 293.060033,34.7804619 L288,34.7804619 L288,34.7797374 Z M291.774543,23.8948524 C291.558481,23.8948524 291.408399,23.8948524 291.010354,23.9426726 L291.010354,28.1117219 L291.482353,28.1117219 C292.9114,28.1117219 294.292596,27.6704722 294.292596,26.0156045 C294.292596,24.3737787 293.188365,23.8948524 291.774543,23.8948524 Z M292.071808,29.1847776 C291.73104,29.1847776 291.425075,29.1847776 291.010354,29.2159331 L291.010354,33.6182869 C291.527305,33.7197236 292.086308,33.7530529 292.60181,33.7530529 C293.798121,33.7530529 295.014733,33.2197855 295.014733,31.3931999 C295.014733,29.5905245 293.576259,29.1847776 292.071808,29.1847776 Z M302.447087,23.8948524 C302.233926,23.8948524 302.046141,23.9296307 301.835881,23.9593372 L301.835881,28.0783927 C302.030916,28.0921591 302.207825,28.1124465 302.400684,28.1124465 C303.742003,28.1124465 304.734578,27.372683 304.734578,25.9148923 C304.734578,24.4252216 303.758679,23.8948524 302.447087,23.8948524 Z M308.456918,34.8500186 C308.000145,34.8500186 307.496244,34.8666832 307.059772,34.7377136 C306.248456,34.4986128 305.128274,32.6713027 304.683101,31.9547247 C303.990691,30.7896514 303.38891,29.1847776 301.836606,29.1673884 L301.836606,33.7189991 C301.836606,34.1175005 302.01714,34.6000495 302.401409,34.7797374 L298.821902,34.7797374 C299.198196,34.5833849 299.37728,34.1356142 299.37728,33.7189991 L299.37728,23.9426726 C299.37728,23.5289557 299.197471,23.0768377 298.821902,22.8688924 L303.131522,22.8688924 C305.006467,22.8688924 307.352687,23.5883686 307.352687,25.8395393 C307.352687,27.728436 305.788782,28.6964322 304.045068,28.6964322 C306.526145,28.7109232 307.983469,34.5268701 310.722659,34.5435347 C309.988196,34.7608992 309.222557,34.8500186 308.456918,34.8500186 Z M310.902468,34.7797374 C311.198283,34.6442469 311.507874,34.2537155 311.507874,33.7189991 L311.507874,23.9426726 C311.507874,23.3999861 311.198283,23.0159757 310.902468,22.8688924 L314.57043,22.8688924 C314.255764,23.0159757 313.968649,23.3999861 313.968649,23.9426726 L313.968649,33.7189991 C313.968649,34.2537155 314.255764,34.6442469 314.57043,34.7797374 L310.902468,34.7797374 Z M318.861924,34.7797374 C319.254894,34.6000495 319.447029,34.1356142 319.447029,33.7189991 L319.447029,24.2346655 L316.812969,24.2346655 C316.205388,24.2346655 315.481077,24.3092939 314.95905,24.6186759 L315.777617,22.8681679 L324.514312,22.8681679 C325.221948,22.8681679 325.945535,22.8529524 326.63287,22.7065937 C326.300078,23.6028596 325.309678,24.2672701 324.739074,24.2672701 C324.045213,24.2513301 322.89748,24.204959 321.908529,24.204959 L321.908529,33.7182745 C321.908529,34.1348897 322.115165,34.5993249 322.500885,34.7790129 L318.861924,34.7790129 L318.861924,34.7797374 Z M327.069343,34.7797374 C327.362257,34.6442469 327.669673,34.2537155 327.669673,33.7189991 L327.669673,23.9426726 C327.669673,23.3999861 327.362257,23.0159757 327.069343,22.8688924 L330.737305,22.8688924 C330.425539,23.0159757 330.126823,23.3999861 330.126823,23.9426726 L330.126823,33.7189991 C330.126823,34.2537155 330.425539,34.6442469 330.737305,34.7797374 L327.069343,34.7797374 Z M337.878919,32.0851433 C337.878919,29.8165834 332.531771,29.304328 332.531771,25.683037 C332.531771,23.4412854 334.665555,22.7073182 336.541951,22.7073182 C337.379368,22.7073182 338.590905,22.8232459 339.356544,23.1753762 L339.489951,25.4019123 C339.019402,24.4187007 337.841217,23.7064699 336.747136,23.7064699 C335.882167,23.7064699 334.975871,24.1339533 334.975871,25.1222368 C334.975871,27.4748442 340.413648,28.0494108 340.413648,31.4794212 C340.413648,33.9689682 338.237087,35 336.040225,35 C334.891041,35 333.327862,34.7790129 332.358487,34.116776 C332.299759,33.7182745 332.272933,33.3016594 332.272933,32.8937389 C332.272933,32.4075672 332.31571,31.9199463 332.387489,31.4402956 C332.99217,32.8176614 334.243583,33.8950643 335.806763,33.8950643 C336.994374,33.8957888 337.878919,33.3784615 337.878919,32.0851433 Z M349.334503,34.7797374 C349.593341,34.6630852 349.870305,34.2537155 349.870305,33.7189991 L349.870305,29.2869388 C349.232273,29.2152086 348.341202,29.184053 347.341376,29.184053 C346.326325,29.184053 345.428004,29.2152086 344.77402,29.2869388 L344.77402,33.7189991 C344.77402,34.2537155 345.043734,34.6442469 345.306198,34.7797374 L341.774543,34.7797374 C342.036281,34.6630852 342.31542,34.2537155 342.31542,33.7189991 L342.31542,23.9426726 C342.31542,23.3999861 342.036281,23.0000356 341.774543,22.8688924 L345.306198,22.8688924 C345.043734,23.0007602 344.77402,23.3999861 344.77402,23.9426726 L344.77402,27.9472495 C345.428004,28.0160816 346.310374,28.0494108 347.341376,28.0494108 C348.341202,28.0494108 349.232273,28.0059379 349.870305,27.9472495 L349.870305,23.9426726 C349.870305,23.3999861 349.594066,23.0000356 349.334503,22.8688924 L352.861083,22.8688924 C352.597169,23.0007602 352.335431,23.3999861 352.335431,23.9426726 L352.335431,33.7189991 C352.335431,34.2537155 352.597169,34.6442469 352.861083,34.7797374 L349.334503,34.7797374 Z" id="Shape"></path>
                        <path d="M365.951626,34.7797374 C366.065456,34.6630852 366.168412,34.5761394 366.168412,34.3652959 C366.168412,34.2942902 366.141585,34.1754643 366.054581,33.9537527 C366.054581,33.9537527 365.075781,31.2917632 364.961225,30.9816567 C364.226038,30.8910882 363.459673,30.8910882 362.70926,30.8910882 C361.997274,30.8910882 361.274412,30.9077528 360.568951,30.9816567 C360.468896,31.2482903 359.419767,33.8957888 359.419767,33.8957888 C359.278385,34.2537155 359.229808,34.3761642 359.229808,34.4544153 C359.229808,34.6312051 359.382065,34.7174263 359.511122,34.7797374 L357.111975,34.7797374 C357.465793,34.6000495 357.772483,34.23053 357.924016,33.8624596 L361.866767,23.6927035 C361.884893,23.6506798 361.891418,23.6035841 361.891418,23.5463448 C361.891418,23.2659448 361.705084,23.0000356 361.454221,22.8681679 L364.547229,22.8681679 L368.557408,33.8523159 C368.721267,34.2935657 369.070735,34.615265 369.364375,34.7790129 L365.951626,34.7790129 L365.951626,34.7797374 Z M362.837592,25.1360032 L361.030075,29.7731106 C361.568777,29.8325235 362.127781,29.8462899 362.673008,29.8462899 C363.29799,29.8462899 363.915722,29.8462899 364.523303,29.7731106 L362.837592,25.1360032 Z M369.974856,34.7797374 C370.270671,34.6442469 370.576636,34.2537155 370.576636,33.7189991 L370.576636,23.9426726 C370.576636,23.3999861 370.270671,23.0159757 369.974856,22.8688924 L373.640643,22.8688924 C373.328877,23.0159757 373.038137,23.3999861 373.038137,23.9426726 L373.038137,33.7189991 C373.038137,34.2537155 373.328152,34.6442469 373.640643,34.7797374 L369.974856,34.7797374 Z M379.213277,23.8948524 C379.015342,23.8948524 378.825382,23.9296307 378.619472,23.9593372 L378.619472,28.0783927 C378.810881,28.0921591 378.985615,28.1124465 379.17195,28.1124465 C380.516168,28.1124465 381.506569,27.372683 381.506569,25.9148923 C381.505844,24.4252216 380.526319,23.8948524 379.213277,23.8948524 Z M385.522549,34.8500186 C385.065775,34.8500186 384.57275,34.8666832 384.126127,34.7377136 C383.313361,34.4986128 382.196079,32.6713027 381.750181,31.9547247 C381.060671,30.7896514 380.163075,29.1673884 378.619472,29.1673884 L378.619472,33.7189991 C378.619472,34.1175005 378.79203,34.6000495 379.17195,34.7797374 L375.595342,34.7797374 C375.979612,34.5833849 376.158696,34.1356142 376.158696,33.7189991 L376.158696,23.9426726 C376.158696,23.5289557 375.979612,23.0768377 375.595342,22.8688924 L379.914388,22.8688924 C381.784258,22.8688924 384.126852,23.5883686 384.126852,25.8395393 C384.126852,27.728436 382.41794,28.6964322 381.124474,28.6964322 C383.696181,28.84424 385.247035,34.5435347 387.79844,34.5435347 C387.058902,34.7608992 386.293263,34.8500186 385.522549,34.8500186 Z M400.393057,24.031792 L396.770772,34.7797374 C396.472057,34.7797374 396.179142,34.6768516 396.013109,34.5601993 C395.65494,34.2153145 395.091587,32.7756376 394.888576,32.2445439 L393.251443,28.1117219 L390.893623,34.7797374 L389.771265,34.7797374 L385.717584,24.0049837 C385.543575,23.5463448 385.24631,23.1065442 384.804037,22.8688924 L388.326992,22.8688924 C388.178359,22.9840956 388.076129,23.1152388 388.076129,23.3659324 C388.076129,23.4862073 388.135582,23.6521288 388.178359,23.7803738 L390.818219,30.9084773 L393.629187,22.8688924 L396.725095,30.6193826 L399.069865,23.6035841 C399.127868,23.413028 399.161944,23.3427468 399.161944,23.2224719 C399.161944,23.0768377 399.098866,22.9840956 398.951684,22.8688924 L401.284853,22.8688924 C400.853456,23.0949514 400.54169,23.5883686 400.393057,24.031792 Z M404.722978,25.1360032 L402.916186,29.7731106 C403.461414,29.8325235 404.018967,29.8462899 404.562745,29.8462899 C405.181201,29.8462899 405.806183,29.8462899 406.410139,29.7731106 L404.722978,25.1360032 Z M407.833387,34.7797374 C407.956643,34.6630852 408.050173,34.5761394 408.050173,34.3652959 C408.050173,34.2942902 408.013921,34.1754643 407.942142,33.9537527 C407.942142,33.9537527 406.969867,31.2917632 406.851686,30.9816567 C406.109974,30.8910882 405.34506,30.8910882 404.594646,30.8910882 C403.889185,30.8910882 403.165598,30.9077528 402.456512,30.9816567 C402.354282,31.2482903 401.312404,33.8957888 401.312404,33.8957888 C401.162321,34.2537155 401.120994,34.3761642 401.120994,34.4544153 C401.120994,34.6312051 401.266727,34.7174263 401.394333,34.7797374 L398.994461,34.7797374 C399.349004,34.6000495 399.654969,34.23053 399.803602,33.8624596 L403.760129,23.6927035 C403.771729,23.6506798 403.782605,23.6035841 403.782605,23.5463448 C403.782605,23.2659448 403.595545,23.0000356 403.338157,22.8681679 L406.434065,22.8681679 L410.442795,33.8523159 C410.608828,34.2935657 410.962646,34.615265 411.254111,34.7790129 L407.833387,34.7790129 L407.833387,34.7797374 Z M418.603811,24.1194623 L415.780517,29.0666762 L415.780517,33.7189991 C415.780517,34.0972132 415.935675,34.6000495 416.312694,34.7797374 L412.79989,34.7797374 C413.158783,34.5833849 413.324092,34.0848958 413.324092,33.7189991 L413.324092,29.0514607 L410.869841,25.1222368 C410.650155,24.7548909 409.626403,23.042784 408.378614,23.042784 C408.717932,22.9138144 409.749659,22.7174619 410.44207,22.7174619 C411.597053,22.7174619 412.169108,22.8232459 412.876019,23.9296307 L415.146834,27.5262871 C415.337519,27.1734322 417.135611,24.0491812 417.135611,24.0491812 C417.352397,23.6687935 417.50103,23.3999861 417.50103,23.2666693 C417.50103,23.095676 417.427076,22.9840956 417.253067,22.8688924 L419.783446,22.8688924 C419.287521,23.1065442 418.87425,23.6514043 418.603811,24.1194623 Z M425.212523,32.0851433 C425.212523,29.8165834 419.86465,29.304328 419.86465,25.683037 C419.86465,23.4412854 421.992634,22.7073182 423.869754,22.7073182 C424.710072,22.7073182 425.914359,22.8232459 426.683623,23.1753762 L426.81703,25.4019123 C426.341405,24.4187007 425.168296,23.7064699 424.07349,23.7064699 C423.207071,23.7064699 422.306575,24.1339533 422.306575,25.1222368 C422.306575,27.4748442 427.744352,28.0494108 427.744352,31.4794212 C427.744352,33.9689682 425.583017,35 423.370204,35 C422.221745,35 420.65494,34.7790129 419.684116,34.116776 C419.621038,33.7182745 419.590586,33.3016594 419.590586,32.8937389 C419.590586,32.4075672 419.636988,31.9199463 419.710942,31.4402956 C420.314898,32.8176614 421.570662,33.8950643 423.133842,33.8950643 C424.326528,33.8957888 425.212523,33.3784615 425.212523,32.0851433 Z" id="Shape"></path>
                        <path d="M458.112526,14.5315183 C456.108524,16.5218517 451.767002,18.230336 449.631043,19.030237 C446.712769,20.1257536 445.417853,20.5133868 443.78507,21.0444805 C441.936951,21.6436817 438.239987,22.7616593 438.239987,22.7616593 C445.898553,25.0468838 451.295728,25.735929 451.295728,25.735929 C451.295728,25.735929 453.810156,24.9592135 457.793509,22.8304914 C459.950494,21.7349748 461.011949,20.9973849 461.771062,20.2923997 C462.050927,20.0395324 462.773788,19.2874516 462.953598,18.3252518 C462.965198,18.2549706 463,18.0709354 463,17.8897984 C463,17.8897984 463,17.762278 462.988399,17.6514221 C462.984049,17.5239017 462.961573,17.438405 462.961573,17.438405 C462.961573,17.438405 462.918796,17.2101724 462.862243,17.0500473 C462.803515,16.8899221 462.557002,16.3957804 462.157507,16.0748056 C461.890693,15.8581658 461.42957,15.3183775 459.759085,14.7314936 C459.191381,14.5344165 458.272034,14.352555 458.272034,14.352555 L458.112526,14.5315183 Z" id="Path"></path>
                        <path d="M462.999275,17.8390801 C462.999275,17.8390801 462.987674,17.6260629 462.935472,17.4456505 C462.89487,17.2848008 462.823091,17.1311966 462.71506,16.9696224 C462.584554,16.7776172 462.40837,16.5522828 462.148082,16.3030382 C461.951597,16.1175539 461.736261,15.9538061 461.476697,15.7799146 C460.431919,15.0959412 459.08335,14.7104817 457.889939,14.5474584 C456.04037,14.3018366 453.918912,14.3453095 453.718077,14.338064 C453.035817,14.3286449 448.627592,14.3648723 447.494359,14.3851596 C442.461878,14.48877 436.301238,14.5025364 434.687306,14.5025364 C418.026681,14.5786139 410.774862,14.2199627 402.70375,12.6027715 C395.83765,11.2398966 392.028305,9.94512933 392.028305,9.94512933 C398.084539,9.73573495 433.421391,8.27069884 439.867695,8.09970551 C444.088135,7.98087964 447.084713,7.95552045 449.482411,8.09390913 C450.712073,8.16274119 451.856182,8.2670761 453.293205,8.51124879 C454.581596,8.73151139 455.751805,9.10537817 456.43334,9.35824543 C457.868913,9.88933913 459.079,10.65736 459.677156,11.4442192 C459.677156,11.4442192 459.854065,11.6253562 460.094052,11.9470555 C460.363041,12.3209223 460.675531,12.7810103 460.781387,12.9527282 C461.655056,14.2757529 462.069778,15.1068095 462.21406,15.3966287 C462.369943,15.7009388 462.5077,16.0168418 462.641832,16.3262238 C462.773063,16.6334321 462.826716,16.819641 462.868768,16.9493351 C462.960848,17.2746571 462.983324,17.5709973 462.987674,17.6376557 L462.999275,17.8390801 Z" id="Path"></path>
                    </g>
                </g>
            </g>
        </g>
    </g>
</svg>