<?xml version="1.0" encoding="UTF-8"?>
<svg width="29px" height="29px" viewBox="0 0 29 29" version="1.1" xmlns="http://www.w3.org/2000/svg" xmlns:xlink="http://www.w3.org/1999/xlink">
    <title>Group</title>
    <g id="Page-1" stroke="none" stroke-width="1" fill="none" fill-rule="evenodd">
        <g id="M.Cizzlin" transform="translate(-612.000000, -1655.000000)" fill="#000000" fill-rule="nonzero">
            <g id="Group" transform="translate(612.000000, 1655.000000)">
                <path d="M22.7857143,24.8571429 C22.7857143,26.0005714 21.8577143,26.9285714 20.7142857,26.9285714 L4.14285714,26.9285714 C3.0015,26.9285714 2.07142857,26.0005714 2.07142857,24.8571429 L2.07142857,8.28571429 C2.07142857,7.14435714 3.0015,6.21428571 4.14285714,6.21428571 L14.5,6.21428571 L14.5,4.14285714 L4.14285714,4.14285714 C1.85807143,4.14285714 0,6.00092857 0,8.28571429 L0,24.8571429 C0,27.1419286 1.85807143,29 4.14285714,29 L20.7142857,29 C22.9990714,29 24.8571429,27.1419286 24.8571429,24.8571429 L24.8571429,14.5 L22.7857143,14.5 L22.7857143,24.8571429 Z" id="Path"></path>
                <polygon id="Path" points="16.5714286 0 21.3212143 4.74978571 8.89264286 17.1783571 11.8216429 20.1073571 24.2502143 7.67878571 29 12.4285714 29 0"></polygon>
            </g>
        </g>
    </g>
</svg>