<svg width="109" height="45" viewBox="0 0 109 45" fill="none" xmlns="http://www.w3.org/2000/svg">
<g clip-path="url(#clip0_1783_187)">
<path d="M108.929 0H0V44.0879H108.929V0Z" fill="#2B332B"/>
<path d="M10.6463 4.25391H22.4949L29.7584 28.866H29.8686L34.8505 4.25391H43.8003L36.2723 39.7447H24.4788L17.0501 15.1877H16.9509L12.024 39.7447H3.07422L10.6463 4.25391Z" fill="white"/>
<path d="M47.2924 4.25391H56.8043L54.0047 17.833H65.2471L68.0467 4.25391H77.5586L70.1849 39.7447H60.6179L63.7702 24.5454H52.5829L49.4306 39.7447H39.9297L47.2924 4.25391Z" fill="white"/>
<path d="M102.57 12.289C100.132 11.1666 97.4717 10.609 94.7881 10.6577C91.0297 10.6577 87.9766 11.2198 87.9766 14.0635C87.9766 19.1005 101.754 17.2158 101.754 27.9953C101.754 37.8048 92.6499 40.3509 84.4165 40.3509C80.6746 40.2639 76.9638 39.6479 73.3945 38.5213L75.5989 31.3019C77.4837 32.5253 81.2422 33.3409 84.3393 33.3409C87.4365 33.3409 91.9114 32.7788 91.9114 29.1195C91.9114 23.4212 78.134 25.5594 78.134 15.5404C78.134 6.39221 86.169 3.63672 93.9505 3.63672C98.3593 3.63672 102.437 4.09964 104.829 5.21286L102.57 12.289Z" fill="white"/>
</g>
<defs>
<clipPath id="clip0_1783_187">
<rect width="108.929" height="44.0879" fill="white"/>
</clipPath>
</defs>
</svg>
